<?xml version="1.0" standalone="no"?>
<!DOCTYPE svg PUBLIC "-//W3C//DTD SVG 20010904//EN"
 "http://www.w3.org/TR/2001/REC-SVG-20010904/DTD/svg10.dtd">
<svg version="1.0" xmlns="http://www.w3.org/2000/svg"
 width="700.000000pt" height="700.000000pt" viewBox="0 0 700.000000 700.000000"
 preserveAspectRatio="xMidYMid meet">
<metadata>
Created by potrace 1.14, written by Peter Selinger 2001-2017
</metadata>
<g transform="translate(0.000000,700.000000) scale(0.100000,-0.100000)"
fill="#000000" stroke="none">
<path d="M4388 6099 c-26 -15 -23 -65 3 -80 34 -18 69 3 69 40 0 42 -36 62
-72 40z"/>
<path d="M3327 5919 c-27 -38 8 -88 50 -72 35 13 44 51 17 77 -21 22 -50 20
-67 -5z"/>
<path d="M2015 5914 c-31 -32 -12 -84 30 -84 56 0 63 84 7 95 -12 2 -29 -3
-37 -11z"/>
<path d="M4948 5579 c-24 -14 -24 -65 0 -78 29 -16 56 -6 67 23 16 47 -24 81
-67 55z"/>
<path d="M5828 5502 c-22 -4 -35 -49 -21 -71 13 -21 57 -26 72 -7 31 37 -4 89
-51 78z"/>
<path d="M4142 5478 c-19 -19 -14 -62 8 -75 31 -20 70 0 70 35 0 33 -16 52
-45 52 -12 0 -26 -5 -33 -12z"/>
<path d="M1655 5256 c-266 -85 -575 -434 -716 -811 -97 -261 -92 -503 14 -602
18 -17 140 -97 272 -179 l240 -149 -22 -100 c-33 -146 -38 -201 -38 -395 0
-245 25 -401 93 -600 18 -52 19 -92 20 -693 l0 -638 24 -49 25 -50 -268 0
c-261 0 -268 -1 -283 -21 -16 -23 -12 -47 12 -67 13 -9 413 -12 1927 -12
l1912 0 19 21 c17 19 17 23 3 47 l-15 27 -432 3 -432 2 0 351 0 351 34 34 34
34 744 0 744 0 -1 -327 c0 -299 -2 -331 -19 -366 -32 -65 -70 -77 -245 -77
-150 0 -151 0 -167 -25 -15 -23 -15 -27 0 -50 l16 -25 471 0 c305 0 477 4 490
10 26 14 26 66 0 80 -12 6 -113 10 -260 10 l-240 0 27 47 26 47 1 641 2 640
27 80 c26 80 52 180 62 244 3 18 7 43 10 54 18 96 24 336 11 473 -6 66 -24
166 -52 288 -30 130 -143 388 -231 526 -94 147 -253 327 -401 452 -170 144
-470 293 -724 359 -133 34 -168 29 -169 -27 0 -32 14 -38 138 -68 129 -31 257
-78 376 -137 84 -42 278 -168 331 -214 210 -185 349 -362 463 -590 53 -108
119 -293 137 -386 34 -174 40 -237 40 -404 -1 -197 -20 -329 -73 -500 l-28
-90 -217 -1 c-202 0 -218 -1 -231 -19 -15 -21 -13 -52 4 -69 6 -6 92 -10 212
-11 112 -1 206 -3 209 -4 3 0 5 -104 5 -231 l0 -229 -756 -3 -756 -3 -42 -28
c-45 -29 -89 -87 -96 -127 -2 -14 -5 -179 -5 -367 l-1 -343 -230 0 -230 0 0
668 0 668 711 0 c684 0 712 1 725 19 18 24 18 36 0 60 -13 19 -50 19 -1322 21
-720 0 -1312 2 -1315 3 -5 1 -49 133 -54 161 0 3 -5 23 -9 45 -4 22 -10 49
-12 60 -2 11 -6 31 -9 45 -20 92 -27 346 -13 480 19 185 82 398 173 585 235
483 692 840 1220 954 103 22 161 29 295 37 80 4 98 8 112 25 14 17 15 25 6 42
-6 12 -15 25 -20 28 -12 8 -115 4 -213 -7 -92 -11 -164 -11 -250 0 -201 25
-460 8 -665 -46 -96 -25 -245 -75 -292 -99 -35 -18 -37 -18 -61 1 -14 12 -28
35 -32 57 -10 53 -39 105 -77 139 -18 16 -91 65 -161 109 -70 44 -171 107
-225 141 -53 33 -112 66 -131 72 -43 15 -125 14 -176 -2z m172 -106 c33 -20
55 -54 67 -102 6 -25 4 -28 -21 -29 -142 -5 -202 -31 -189 -82 8 -33 28 -39
95 -28 31 6 71 12 90 15 l33 5 -5 -59 c-16 -164 -96 -355 -236 -570 -56 -85
-60 -95 -48 -114 17 -25 52 -32 74 -15 25 22 118 169 170 270 95 184 143 363
140 515 -1 59 2 90 8 86 159 -97 281 -177 296 -195 28 -33 42 -92 42 -177 1
-312 -279 -795 -573 -988 -80 -53 -185 -87 -238 -77 -34 6 -304 165 -318 186
-3 5 2 9 11 9 34 0 160 71 243 138 29 22 34 52 14 75 -23 27 -45 21 -123 -33
l-73 -50 -13 24 c-7 13 -22 59 -34 102 -69 249 30 538 241 711 76 62 87 91 45
119 -29 19 -71 -5 -160 -91 -114 -112 -183 -233 -223 -391 -35 -140 -23 -334
28 -465 22 -55 20 -58 -56 -61 -92 -3 -147 74 -148 209 0 98 7 145 40 252 109
358 428 747 673 821 49 15 115 11 148 -10z m1403 -385 c-122 -50 -220 -101
-329 -173 -53 -34 -100 -61 -106 -60 -27 7 -203 124 -197 130 4 4 54 23 112
42 120 40 283 75 385 83 39 3 71 6 72 7 1 1 34 2 75 3 l73 2 -85 -34z m-658
-212 c68 -42 127 -80 132 -84 4 -4 -39 -54 -97 -111 -186 -183 -317 -374 -416
-608 -37 -88 -93 -266 -105 -334 -3 -16 -6 -30 -8 -31 -4 -3 -297 179 -297
185 0 3 29 25 65 49 163 110 344 331 459 559 56 114 111 275 127 375 6 43 13
77 14 77 2 0 58 -34 126 -77z m-822 -1082 c41 -26 128 -81 193 -121 l117 -73
-7 -81 c-22 -248 3 -484 76 -726 6 -19 11 -37 11 -40 0 -3 -121 -6 -269 -6
l-270 0 -24 80 c-55 177 -79 336 -79 521 0 141 5 188 38 352 13 67 24 125 24
128 0 4 3 4 8 1 4 -2 23 -1 42 4 57 13 62 12 140 -39z m1600 -1152 c4 -5 5
-1263 1 -1317 -1 -10 -64 -12 -298 -10 l-298 3 0 65 c0 36 -5 72 -10 81 -16
25 -42 29 -66 10 -19 -15 -22 -27 -21 -89 l1 -72 -185 0 -184 0 0 95 c-1 52
-1 187 -1 300 0 376 -3 341 30 377 l29 33 107 2 c128 3 169 -10 189 -59 10
-23 14 -84 14 -206 1 -118 5 -178 13 -188 19 -23 64 -18 76 9 5 12 9 105 8
208 -1 183 -2 186 -28 232 -18 29 -44 56 -73 73 -42 25 -56 27 -161 29 -136 3
-178 -6 -228 -48 -74 -60 -75 -65 -75 -484 l0 -373 -230 0 c-246 0 -262 3
-307 52 -11 12 -25 39 -30 58 -7 26 -11 1157 -4 1216 1 12 1723 16 1731 3z"/>
<path d="M950 5240 c-26 -26 -26 -55 1 -74 28 -19 61 -7 70 26 8 30 2 41 -28
57 -19 10 -26 8 -43 -9z"/>
<path d="M2928 5229 c-26 -15 -23 -65 3 -80 34 -18 69 3 69 40 0 42 -36 62
-72 40z"/>
<path d="M5338 4791 c-19 -16 -21 -23 -13 -47 8 -23 17 -30 43 -32 26 -3 34 1
41 20 19 52 -29 92 -71 59z"/>
<path d="M4826 4294 c-32 -31 -23 -45 99 -153 141 -125 270 -327 334 -524 19
-54 27 -68 48 -73 18 -5 31 -1 46 14 21 21 21 22 3 79 -36 115 -87 220 -162
333 -72 109 -158 206 -251 285 -67 57 -91 65 -117 39z"/>
<path d="M5838 4113 c-18 -5 -31 -43 -22 -67 11 -30 83 -32 85 -3 0 7 2 20 4
30 3 15 -30 49 -45 46 -3 -1 -12 -3 -22 -6z"/>
<path d="M2481 3762 c-46 -66 -109 -239 -142 -397 -25 -120 -36 -388 -18 -428
13 -29 35 -38 67 -26 21 8 22 13 22 141 1 152 3 176 31 312 22 105 67 242 104
316 25 51 25 75 -2 96 -27 20 -39 17 -62 -14z"/>
<path d="M1142 3318 c-26 -26 -3 -90 30 -84 35 7 48 20 48 45 0 32 -16 51 -45
51 -12 0 -26 -5 -33 -12z"/>
<path d="M4244 1621 c-41 -7 -57 -45 -35 -80 13 -21 283 -23 312 -3 22 15 24
41 6 65 -10 15 -32 18 -138 20 -69 1 -134 0 -145 -2z"/>
</g>
</svg>
